<?xml version="1.0" encoding="UTF-8"?>
<svg xmlns="http://www.w3.org/2000/svg" viewBox="0 0 1920 1080">
  <path fill="#e5e2ab" d="M1723.03,0c-47.87,17.65-102.27,31.46-162.03,40.3-163.1,24.14-325.7,14.77-489.64,14.38-319.98-.76-650.84,7.62-958.1,118.03-38.32,13.77-76.15,29.09-113.26,46.21.18,15.28.35,30.56.53,45.84C244.35,136.52,521.81,101.2,793.61,92.97c271.8-8.23,544.82,8.6,815.03-23.72-312.08,100.19-643.36,15.08-961.1,69.85-134.11,23.11-269.49,61.94-390.77,128.23C163.28,318.42,77.49,381.71.29,454.84v93.9c4.17-4.42,8.24-8.93,12.51-13.27,80.45-82.66,173.33-153.22,274.71-208.99,293.46-161.76,635.44-146.93,956.89-142,105.73,1.62,206.59-.83,310.06-28.69,96.04-26.12,182.82-81.95,254.23-155.78h-85.66Z"/>
</svg>
