<?xml version="1.0" encoding="UTF-8"?>
<svg id="Camada_1" data-name="Camada 1" xmlns="http://www.w3.org/2000/svg" viewBox="0 0 1400 225.32">
  <defs>
    <style>
      .cls-1, .cls-2 {
        fill: #bcaf8f;
        stroke-width: 0px;
      }

      .cls-2 {
        opacity: 0;
      }
    </style>
  </defs>
  <g>
    <g>
      <g>
        <path class="cls-1" d="M62.99,156.95c3.69-1.18,6.99-3.82,11.08-13.84l25.98-64.35c.92-2.37.79-4.09-.26-6.2l-1.19-2.77,9.89-4.48,32.44,77.93c4.09,9.89,7.25,12.53,10.02,13.71v1.72h-20.44v-1.72c4.09-1.18,3.03-3.82-1.19-13.71l-8.04-19.38h-37.18l-7.78,19.25c-3.43,8.57-3.03,12.92,1.58,13.84v1.72h-14.9v-1.72ZM120.48,121.87l-18.06-43.38-17.54,43.38h35.6Z"/>
        <path class="cls-1" d="M160.04,124.64v-41.54c0-10.81-1.19-13.85-5.28-15.03v-1.71h21.36v1.71c-3.96,1.19-5.27,4.22-5.27,15.03v40.74c0,24.53,13.58,33.36,30.72,33.36,11.34,0,26.5-7.52,26.5-33.36v-35.47c0-15.03-3.16-18.72-8.97-20.31v-1.71h16.35v1.71c-3.96,1.19-5.27,4.22-5.27,15.03v40.35c0,26.5-14.5,36.52-32.83,36.52s-37.32-8.84-37.32-35.34Z"/>
        <path class="cls-1" d="M246.14,114.36c0-28.09,21.76-48.92,52.74-48.92,11.34,0,24.52,3.3,29.67,6.6l.53,15.69-1.32.26c-5.14-12-17.67-20.04-33.36-20.04-20.97,0-37.18,13.98-37.18,40.88-.13,24.79,14.9,48.52,42.33,48.52,14.24,0,25.32-7.52,30.46-21.76l1.45.13-2.11,17.14c-6.2,3.43-18.72,7.12-33.49,7.12-30.33,0-49.71-16.88-49.71-45.62Z"/>
        <path class="cls-1" d="M343.72,156.95c3.96-1.18,5.27-4.22,5.27-15.03v-58.81c0-10.81-1.32-13.85-5.27-15.03v-1.71h21.36v1.71c-4.09,1.19-5.28,4.22-5.28,15.03v58.81c0,10.81,1.19,13.85,5.28,15.03v1.72h-21.36v-1.72Z"/>
        <path class="cls-1" d="M378.54,158.66v-1.72c3.96-1.18,5.27-4.22,5.27-15.03v-58.81c0-10.81-1.32-13.85-5.27-15.03v-1.71h61.31l1.45,17.14-1.45.4c-4.62-11.6-12.4-15.56-25.84-15.56h-19.38v39.95h16.88c15.03,0,18.86-3.03,20.44-8.96h1.58v19.91h-1.58c-1.58-5.93-5.41-8.97-20.44-8.97h-16.88v40.48c0,3.82,2.11,5.93,5.93,5.93h17.14c12.66,0,20.7-3.56,25.45-15.82l1.45.26-1.05,17.54h-65.01Z"/>
        <path class="cls-1" d="M456.2,158.66v-1.72c3.96-1.18,5.27-4.22,5.27-15.03v-58.81c0-10.81-1.32-13.85-5.27-15.03v-1.71h21.36v1.71c-4.09,1.19-5.28,4.22-5.28,15.03v67.51c0,3.82,2.11,5.93,5.93,5.93h15.69c12.66,0,18.46-3.16,23.08-13.05l1.45.26-.92,14.9h-61.31Z"/>
        <path class="cls-1" d="M527.81,158.66v-1.72c3.96-1.18,5.27-4.22,5.27-15.03v-58.81c0-10.81-1.32-13.85-5.27-15.03v-1.71h61.31l1.45,17.14-1.45.4c-4.61-11.6-12.39-15.56-25.84-15.56h-19.38v39.95h16.88c15.03,0,18.86-3.03,20.44-8.96h1.58v19.91h-1.58c-1.58-5.93-5.41-8.97-20.44-8.97h-16.88v40.48c0,3.82,2.11,5.93,5.93,5.93h17.14c12.66,0,20.7-3.56,25.45-15.82l1.45.26-1.06,17.54h-65.01Z"/>
      </g>
      <g>
        <path class="cls-1" d="M624.2,156.95c3.69-1.18,6.99-3.82,11.08-13.84l25.98-64.35c.92-2.37.79-4.09-.27-6.2l-1.19-2.77,9.89-4.48,32.44,77.93c4.09,9.89,7.25,12.53,10.02,13.71v1.72h-20.44v-1.72c4.09-1.18,3.03-3.82-1.19-13.71l-8.05-19.38h-37.18l-7.78,19.25c-3.43,8.57-3.03,12.92,1.58,13.84v1.72h-14.9v-1.72ZM681.69,121.87l-18.07-43.38-17.54,43.38h35.6Z"/>
        <path class="cls-1" d="M717.69,158.66v-1.72c3.96-1.18,5.27-4.22,5.27-15.03v-58.81c0-10.81-1.32-13.85-5.27-15.03v-1.71h21.36v1.71c-4.09,1.19-5.27,4.22-5.27,15.03v67.51c0,3.82,2.11,5.93,5.93,5.93h15.69c12.66,0,18.46-3.16,23.08-13.05l1.45.26-.92,14.9h-61.32Z"/>
        <path class="cls-1" d="M766.22,68.07v-1.71h20.57v1.71c-3.96,1.19-3.03,3.82.92,13.85l25.45,65.27,25.05-65.14c3.3-8.7,2.77-13.05-1.72-13.98v-1.71h14.77v1.71c-3.56,1.19-6.86,3.82-10.68,13.85l-29.93,77.4h-3.69l-30.86-77.4c-3.96-10.02-7.12-12.66-9.89-13.85Z"/>
        <path class="cls-1" d="M857.33,158.66v-1.72c3.96-1.18,5.27-4.22,5.27-15.03v-58.81c0-10.81-1.32-13.85-5.27-15.03v-1.71h61.32l1.45,17.14-1.45.4c-4.61-11.6-12.39-15.56-25.84-15.56h-19.38v39.95h16.88c15.03,0,18.86-3.03,20.44-8.96h1.58v19.91h-1.58c-1.58-5.93-5.41-8.97-20.44-8.97h-16.88v40.48c0,3.82,2.11,5.93,5.93,5.93h17.14c12.66,0,20.7-3.56,25.45-15.82l1.45.26-1.05,17.54h-65.01Z"/>
        <path class="cls-1" d="M934.21,150.62l-.66-18.33,1.45-.26c5.14,13.84,15.17,25.58,33.49,25.58,10.55,0,19.65-6.86,19.65-17.54,0-13.18-16.22-19.25-27.29-23.73-15.56-6.2-25.45-11.74-25.45-25.71,0-15.43,12.79-25.19,32.17-25.19,12,0,20.57,3.3,25.71,6.07l.53,15.29-1.32.4c-4.88-11.47-14.11-19.65-29.14-19.65-10.68,0-19.78,6.2-19.78,17.4,0,12.4,13.58,17.41,24.79,22.02,14.63,5.8,28.35,11.6,28.35,26.5,0,16.48-15.29,26.5-30.85,26.5-13.84,0-25.45-4.88-31.65-9.36Z"/>
      </g>
    </g>
    <g>
      <path class="cls-1" d="M1048.11,98.85c-2.46,0-4.35-.56-5.68-1.69s-1.99-2.66-1.99-4.6.69-3.46,2.08-4.56c1.39-1.1,3.66-1.81,6.83-2.15l7.74-.88.04,1.92-7.7.91c-2.26.26-3.86.76-4.82,1.5-.96.74-1.43,1.77-1.43,3.09s.44,2.39,1.32,3.17c.88.78,2.23,1.16,4.08,1.16,1.39,0,2.73-.26,4.02-.79,1.29-.52,2.45-1.33,3.48-2.4v-10.54c0-1.58-.27-2.8-.81-3.67-.54-.86-1.33-1.46-2.37-1.8-1.04-.34-2.32-.51-3.83-.51-1.01,0-2.14.09-3.39.26-1.25.17-2.51.47-3.77.91v-2.22c1.09-.4,2.3-.7,3.61-.88,1.32-.19,2.57-.28,3.76-.28,2.04,0,3.76.25,5.16.75,1.4.5,2.47,1.36,3.19,2.57.73,1.21,1.09,2.86,1.09,4.96v15.42h-2.29l-.19-2.76h-.22c-.88.93-2.02,1.69-3.43,2.26s-2.9.86-4.49.86Z"/>
      <path class="cls-1" d="M1066.33,98.48v-23.35h2.26l.19,3.1h.22c.96-1.02,2.17-1.83,3.61-2.41,1.44-.59,2.89-.88,4.34-.88.45,0,.85.01,1.22.04.37.03.77.08,1.2.15v2.5c-.39-.07-.79-.12-1.21-.14-.42-.02-.85-.03-1.29-.03-.82,0-1.71.12-2.67.36-.96.24-1.9.61-2.81,1.11-.91.5-1.71,1.16-2.38,1.98v17.57h-2.67Z"/>
      <path class="cls-1" d="M1100.31,107.97v-12.08h-.15c-.92.91-2.04,1.63-3.35,2.17-1.32.54-2.79.81-4.43.81-1.9,0-3.61-.38-5.13-1.15-1.52-.77-2.74-2-3.63-3.7-.9-1.7-1.35-3.93-1.35-6.71,0-4.18,1.07-7.32,3.21-9.4,2.14-2.08,5.32-3.13,9.53-3.13.92,0,1.83.04,2.74.13s1.8.21,2.67.37c.88.16,1.73.36,2.57.6v32.08h-2.67ZM1092.95,96.56c1.34,0,2.66-.25,3.96-.75,1.3-.5,2.43-1.32,3.4-2.46v-15.63c-.72-.2-1.55-.36-2.49-.49-.94-.12-1.97-.18-3.09-.18-3.22,0-5.65.81-7.28,2.43-1.63,1.62-2.45,4.15-2.45,7.6,0,2.34.35,4.21,1.05,5.6.7,1.39,1.64,2.38,2.84,2.99,1.19.6,2.55.91,4.08.91Z"/>
      <path class="cls-1" d="M1119.09,98.87c-1.68,0-3.16-.29-4.43-.87-1.27-.58-2.26-1.52-2.98-2.8-.71-1.29-1.07-2.97-1.07-5.06v-15.01h2.65v14.88c0,2.4.58,4.08,1.72,5.03,1.15.96,2.65,1.43,4.49,1.43.93,0,1.88-.12,2.85-.37s1.89-.62,2.79-1.13c.9-.51,1.72-1.16,2.47-1.95v-17.9h2.67v23.35h-2.24l-.22-2.67h-.19c-1.15,1.01-2.46,1.77-3.92,2.29s-3,.78-4.59.78Z"/>
      <path class="cls-1" d="M1139.55,69.63c-.62,0-1.1-.16-1.46-.49s-.53-.76-.53-1.3c0-.57.18-1.03.53-1.36s.84-.5,1.46-.5,1.1.17,1.46.5c.35.33.53.78.53,1.36s-.18.98-.53,1.3c-.35.32-.84.49-1.46.49ZM1138.24,98.48v-23.35h2.67v23.35h-2.67Z"/>
      <path class="cls-1" d="M1145.26,77.41v-2.29h16.69v2.29h-16.69ZM1158.44,98.87c-2.59,0-4.6-.65-6.03-1.94-1.43-1.29-2.15-3.32-2.15-6.08v-15.72l.41-8.56h2.24v23.8c0,2.23.52,3.81,1.56,4.75s2.53,1.41,4.45,1.41c.53,0,1.06-.03,1.6-.1.53-.06,1.16-.18,1.88-.36v2.35c-.73.16-1.41.27-2.02.33-.61.06-1.26.1-1.95.1Z"/>
      <path class="cls-1" d="M1177.2,98.89c-2.53,0-4.69-.43-6.47-1.28-1.78-.86-3.13-2.18-4.05-3.97-.92-1.79-1.38-4.06-1.38-6.82s.41-4.86,1.23-6.64c.82-1.78,1.99-3.13,3.51-4.03s3.34-1.36,5.46-1.36,3.9.45,5.37,1.36,2.58,2.26,3.35,4.05,1.15,4.02,1.15,6.66v.88h-19.04v-1.96h17.36l-.91.58c0-2.2-.28-4-.83-5.4-.55-1.4-1.37-2.44-2.46-3.12-1.09-.68-2.43-1.01-4.02-1.01s-2.95.33-4.06,1c-1.12.67-1.96,1.7-2.53,3.1-.57,1.4-.86,3.21-.86,5.42v.75c0,2.24.36,4.06,1.09,5.47.73,1.4,1.79,2.43,3.2,3.09s3.14.99,5.2.99c1.05,0,2.13-.1,3.23-.29,1.11-.19,2.26-.46,3.45-.81v2.22c-1.24.37-2.43.65-3.57.83s-2.28.27-3.42.27Z"/>
      <path class="cls-1" d="M1187.89,77.41v-2.29h16.69v2.29h-16.69ZM1201.07,98.87c-2.59,0-4.6-.65-6.03-1.94-1.43-1.29-2.15-3.32-2.15-6.08v-15.72l.41-8.56h2.24v23.8c0,2.23.52,3.81,1.56,4.75s2.53,1.41,4.45,1.41c.53,0,1.06-.03,1.6-.1.53-.06,1.16-.18,1.88-.36v2.35c-.73.16-1.41.27-2.02.33-.61.06-1.26.1-1.95.1Z"/>
      <path class="cls-1" d="M1217.47,98.87c-1.68,0-3.16-.29-4.43-.87-1.27-.58-2.26-1.52-2.98-2.8-.71-1.29-1.07-2.97-1.07-5.06v-15.01h2.65v14.88c0,2.4.58,4.08,1.72,5.03,1.15.96,2.65,1.43,4.49,1.43.93,0,1.88-.12,2.85-.37s1.89-.62,2.79-1.13c.9-.51,1.72-1.16,2.47-1.95v-17.9h2.67v23.35h-2.24l-.22-2.67h-.19c-1.15,1.01-2.46,1.77-3.92,2.29s-3,.78-4.59.78Z"/>
      <path class="cls-1" d="M1236.62,98.48v-23.35h2.26l.19,3.1h.22c.96-1.02,2.17-1.83,3.61-2.41,1.44-.59,2.89-.88,4.34-.88.45,0,.85.01,1.22.04.37.03.77.08,1.2.15v2.5c-.39-.07-.79-.12-1.21-.14-.42-.02-.85-.03-1.29-.03-.82,0-1.71.12-2.67.36-.96.24-1.9.61-2.81,1.11-.91.5-1.71,1.16-2.38,1.98v17.57h-2.67Z"/>
      <path class="cls-1" d="M1260.34,98.85c-2.46,0-4.35-.56-5.68-1.69s-1.99-2.66-1.99-4.6.69-3.46,2.08-4.56c1.39-1.1,3.66-1.81,6.83-2.15l7.74-.88.04,1.92-7.7.91c-2.26.26-3.86.76-4.82,1.5-.96.74-1.43,1.77-1.43,3.09s.44,2.39,1.32,3.17c.88.78,2.23,1.16,4.08,1.16,1.39,0,2.73-.26,4.02-.79,1.29-.52,2.45-1.33,3.48-2.4v-10.54c0-1.58-.27-2.8-.81-3.67-.54-.86-1.33-1.46-2.37-1.8-1.04-.34-2.32-.51-3.83-.51-1.01,0-2.14.09-3.39.26-1.25.17-2.51.47-3.77.91v-2.22c1.09-.4,2.3-.7,3.61-.88,1.32-.19,2.57-.28,3.76-.28,2.04,0,3.76.25,5.16.75,1.4.5,2.47,1.36,3.19,2.57.73,1.21,1.09,2.86,1.09,4.96v15.42h-2.29l-.19-2.76h-.22c-.88.93-2.02,1.69-3.43,2.26s-2.9.86-4.49.86Z"/>
      <path class="cls-1" d="M1299.45,98.87c-2.01,0-3.8-.4-5.36-1.21s-2.79-2.06-3.69-3.77c-.9-1.71-1.35-3.91-1.35-6.6s.48-5.09,1.44-6.94,2.39-3.25,4.28-4.18c1.89-.93,4.24-1.4,7.04-1.4.96,0,1.9.05,2.81.14.91.09,1.74.22,2.47.38v-11.64h2.67v34.84h-2.26l-.19-2.76h-.22c-.91.96-2.02,1.73-3.33,2.3-1.32.57-2.76.85-4.32.85ZM1299.9,96.52c1.32,0,2.62-.26,3.88-.78,1.27-.52,2.37-1.4,3.32-2.65v-15.42c-.72-.2-1.54-.36-2.46-.47-.92-.11-1.85-.17-2.78-.17-3.39,0-5.92.81-7.58,2.44s-2.49,4.15-2.49,7.59c0,2.3.33,4.14,1,5.53.67,1.39,1.61,2.39,2.83,3.01,1.21.62,2.64.93,4.28.93Z"/>
      <path class="cls-1" d="M1328.24,98.89c-2.53,0-4.69-.43-6.47-1.28-1.78-.86-3.13-2.18-4.05-3.97-.92-1.79-1.38-4.06-1.38-6.82s.41-4.86,1.23-6.64c.82-1.78,1.99-3.13,3.51-4.03s3.34-1.36,5.46-1.36,3.9.45,5.37,1.36,2.58,2.26,3.35,4.05,1.15,4.02,1.15,6.66v.88h-19.04v-1.96h17.36l-.91.58c0-2.2-.28-4-.83-5.4-.55-1.4-1.37-2.44-2.46-3.12-1.09-.68-2.43-1.01-4.02-1.01s-2.95.33-4.06,1c-1.12.67-1.96,1.7-2.53,3.1-.57,1.4-.86,3.21-.86,5.42v.75c0,2.24.36,4.06,1.09,5.47.73,1.4,1.79,2.43,3.2,3.09s3.14.99,5.2.99c1.05,0,2.13-.1,3.23-.29,1.11-.19,2.26-.46,3.45-.81v2.22c-1.24.37-2.43.65-3.57.83s-2.28.27-3.42.27Z"/>
      <path class="cls-1" d="M1041.75,158.93v-32.84h2.29l.22,2.8h.17c.89-.99,2-1.76,3.32-2.32,1.32-.55,2.77-.83,4.36-.83,1.94,0,3.69.38,5.26,1.15s2.81,2,3.73,3.7c.92,1.7,1.38,3.94,1.38,6.73s-.48,5.09-1.43,6.95-2.38,3.25-4.27,4.17c-1.89.92-4.24,1.38-7.06,1.38-.95,0-1.88-.05-2.8-.14-.92-.09-1.75-.2-2.48-.31v9.55h-2.67ZM1049.68,147.57c3.39,0,5.92-.81,7.57-2.44s2.48-4.14,2.48-7.55c0-2.36-.35-4.23-1.05-5.62-.7-1.39-1.65-2.38-2.87-2.99-1.21-.6-2.62-.91-4.22-.91-1.29,0-2.58.26-3.85.77-1.27.51-2.38,1.4-3.33,2.66v15.46c.72.19,1.54.33,2.47.44.93.11,1.86.16,2.79.16Z"/>
      <path class="cls-1" d="M1078.4,149.86c-2.16,0-4.05-.42-5.67-1.27s-2.89-2.16-3.78-3.95c-.9-1.78-1.35-4.07-1.35-6.86s.45-5.01,1.36-6.79c.91-1.78,2.17-3.1,3.8-3.96,1.62-.85,3.51-1.28,5.65-1.28s4.09.42,5.71,1.26,2.88,2.15,3.77,3.91c.89,1.77,1.34,4.05,1.34,6.84s-.46,5.03-1.37,6.81c-.91,1.78-2.18,3.11-3.81,3.98-1.63.87-3.51,1.3-5.65,1.3ZM1078.4,147.57c1.65,0,3.09-.33,4.3-.98,1.21-.65,2.15-1.69,2.8-3.12.65-1.42.98-3.31.98-5.67s-.33-4.25-.99-5.69c-.66-1.44-1.6-2.48-2.8-3.12-1.21-.64-2.64-.96-4.29-.96s-3.06.32-4.27.95c-1.21.63-2.14,1.66-2.8,3.09-.66,1.43-.99,3.32-.99,5.66s.33,4.28.99,5.71c.66,1.44,1.6,2.48,2.8,3.14,1.21.65,2.63.98,4.27.98Z"/>
      <path class="cls-1" d="M1095.78,149.45v-23.35h2.24l.22,2.76h.22c1.16-1.01,2.49-1.78,3.99-2.31s3.03-.8,4.61-.8c1.72,0,3.23.3,4.53.89,1.29.6,2.29,1.55,3,2.85.7,1.3,1.06,3.01,1.06,5.14v14.81h-2.67v-14.77c0-2.4-.56-4.09-1.68-5.07-1.12-.98-2.67-1.47-4.64-1.47-.88,0-1.8.11-2.78.35-.98.23-1.93.59-2.87,1.09-.93.5-1.78,1.15-2.54,1.97v17.9h-2.67Z"/>
      <path class="cls-1" d="M1119.67,128.38v-2.29h16.69v2.29h-16.69ZM1132.85,149.83c-2.59,0-4.6-.65-6.03-1.94-1.43-1.29-2.15-3.32-2.15-6.08v-15.72l.41-8.56h2.24v23.8c0,2.23.52,3.81,1.56,4.75s2.53,1.41,4.45,1.41c.53,0,1.06-.03,1.6-.1.53-.06,1.16-.18,1.88-.36v2.35c-.73.16-1.41.27-2.02.33-.61.06-1.26.1-1.95.1Z"/>
      <path class="cls-1" d="M1147.48,149.81c-2.46,0-4.35-.56-5.68-1.69s-1.99-2.66-1.99-4.6.69-3.46,2.08-4.56c1.39-1.1,3.66-1.81,6.83-2.15l7.74-.88.04,1.92-7.7.91c-2.26.26-3.86.76-4.82,1.5-.96.74-1.43,1.77-1.43,3.09s.44,2.39,1.32,3.17c.88.78,2.23,1.16,4.08,1.16,1.39,0,2.73-.26,4.02-.79,1.29-.52,2.45-1.33,3.48-2.4v-10.54c0-1.58-.27-2.8-.81-3.67-.54-.86-1.33-1.46-2.37-1.8-1.04-.34-2.32-.51-3.83-.51-1.01,0-2.14.09-3.39.26-1.25.17-2.51.47-3.77.91v-2.22c1.09-.4,2.3-.7,3.61-.88,1.32-.19,2.57-.28,3.76-.28,2.04,0,3.76.25,5.16.75,1.4.5,2.47,1.36,3.19,2.57.73,1.21,1.09,2.86,1.09,4.96v15.42h-2.29l-.19-2.76h-.22c-.88.93-2.02,1.69-3.43,2.26s-2.9.86-4.49.86Z"/>
      <path class="cls-1" d="M1183.99,149.81c-2.46,0-4.35-.56-5.68-1.69s-1.99-2.66-1.99-4.6.69-3.46,2.08-4.56c1.39-1.1,3.66-1.81,6.83-2.15l7.74-.88.04,1.92-7.7.91c-2.26.26-3.86.76-4.82,1.5-.96.74-1.43,1.77-1.43,3.09s.44,2.39,1.32,3.17c.88.78,2.23,1.16,4.08,1.16,1.39,0,2.73-.26,4.02-.79,1.29-.52,2.45-1.33,3.48-2.4v-10.54c0-1.58-.27-2.8-.81-3.67-.54-.86-1.33-1.46-2.37-1.8-1.04-.34-2.32-.51-3.83-.51-1.01,0-2.14.09-3.39.26-1.25.17-2.51.47-3.77.91v-2.22c1.09-.4,2.3-.7,3.61-.88,1.32-.19,2.57-.28,3.76-.28,2.04,0,3.76.25,5.16.75,1.4.5,2.47,1.36,3.19,2.57.73,1.21,1.09,2.86,1.09,4.96v15.42h-2.29l-.19-2.76h-.22c-.88.93-2.02,1.69-3.43,2.26s-2.9.86-4.49.86Z"/>
      <path class="cls-1" d="M1214.13,158.93v-32.84h2.29l.22,2.8h.17c.89-.99,2-1.76,3.32-2.32,1.32-.55,2.77-.83,4.36-.83,1.94,0,3.69.38,5.26,1.15s2.81,2,3.73,3.7c.92,1.7,1.38,3.94,1.38,6.73s-.48,5.09-1.43,6.95-2.38,3.25-4.27,4.17c-1.89.92-4.24,1.38-7.06,1.38-.95,0-1.88-.05-2.8-.14-.92-.09-1.75-.2-2.48-.31v9.55h-2.67ZM1222.07,147.57c3.39,0,5.92-.81,7.57-2.44s2.48-4.14,2.48-7.55c0-2.36-.35-4.23-1.05-5.62-.7-1.39-1.65-2.38-2.87-2.99-1.21-.6-2.62-.91-4.22-.91-1.29,0-2.58.26-3.85.77-1.27.51-2.38,1.4-3.33,2.66v15.46c.72.19,1.54.33,2.47.44.93.11,1.86.16,2.79.16Z"/>
      <path class="cls-1" d="M1250.79,149.86c-2.16,0-4.05-.42-5.67-1.27s-2.89-2.16-3.78-3.95c-.9-1.78-1.35-4.07-1.35-6.86s.45-5.01,1.36-6.79c.91-1.78,2.17-3.1,3.8-3.96,1.62-.85,3.51-1.28,5.65-1.28s4.09.42,5.71,1.26,2.88,2.15,3.77,3.91c.89,1.77,1.34,4.05,1.34,6.84s-.46,5.03-1.37,6.81c-.91,1.78-2.18,3.11-3.81,3.98-1.63.87-3.51,1.3-5.65,1.3ZM1250.79,147.57c1.65,0,3.09-.33,4.3-.98,1.21-.65,2.15-1.69,2.8-3.12.65-1.42.98-3.31.98-5.67s-.33-4.25-.99-5.69c-.66-1.44-1.6-2.48-2.8-3.12-1.21-.64-2.64-.96-4.29-.96s-3.06.32-4.27.95c-1.21.63-2.14,1.66-2.8,3.09-.66,1.43-.99,3.32-.99,5.66s.33,4.28.99,5.71c.66,1.44,1.6,2.48,2.8,3.14,1.21.65,2.63.98,4.27.98Z"/>
      <path class="cls-1" d="M1268.17,149.45v-23.35h2.24l.22,2.76h.22c1.16-1.01,2.49-1.78,3.99-2.31s3.03-.8,4.61-.8c1.72,0,3.23.3,4.53.89,1.29.6,2.29,1.55,3,2.85.7,1.3,1.06,3.01,1.06,5.14v14.81h-2.67v-14.77c0-2.4-.56-4.09-1.68-5.07-1.12-.98-2.67-1.47-4.64-1.47-.88,0-1.8.11-2.78.35-.98.23-1.93.59-2.87,1.09-.93.5-1.78,1.15-2.54,1.97v17.9h-2.67Z"/>
      <path class="cls-1" d="M1292.06,128.38v-2.29h16.69v2.29h-16.69ZM1305.23,149.83c-2.59,0-4.6-.65-6.03-1.94-1.43-1.29-2.15-3.32-2.15-6.08v-15.72l.41-8.56h2.24v23.8c0,2.23.52,3.81,1.56,4.75s2.53,1.41,4.45,1.41c.53,0,1.06-.03,1.6-.1.53-.06,1.16-.18,1.88-.36v2.35c-.73.16-1.41.27-2.02.33-.61.06-1.26.1-1.95.1Z"/>
      <path class="cls-1" d="M1319.87,149.81c-2.46,0-4.35-.56-5.68-1.69s-1.99-2.66-1.99-4.6.69-3.46,2.08-4.56c1.39-1.1,3.66-1.81,6.83-2.15l7.74-.88.04,1.92-7.7.91c-2.26.26-3.86.76-4.82,1.5-.96.74-1.43,1.77-1.43,3.09s.44,2.39,1.32,3.17c.88.78,2.23,1.16,4.08,1.16,1.39,0,2.73-.26,4.02-.79,1.29-.52,2.45-1.33,3.48-2.4v-10.54c0-1.58-.27-2.8-.81-3.67-.54-.86-1.33-1.46-2.37-1.8-1.04-.34-2.32-.51-3.83-.51-1.01,0-2.14.09-3.39.26-1.25.17-2.51.47-3.77.91v-2.22c1.09-.4,2.3-.7,3.61-.88,1.32-.19,2.57-.28,3.76-.28,2.04,0,3.76.25,5.16.75,1.4.5,2.47,1.36,3.19,2.57.73,1.21,1.09,2.86,1.09,4.96v15.42h-2.29l-.19-2.76h-.22c-.88.93-2.02,1.69-3.43,2.26s-2.9.86-4.49.86Z"/>
    </g>
  </g>
  <rect class="cls-2" y="0" width="1400" height="225.32"/>
</svg>