<?xml version="1.0" encoding="UTF-8"?>
<svg id="Camada_1" data-name="Camada 1" xmlns="http://www.w3.org/2000/svg" viewBox="0 0 1300 333.66">
  <defs>
    <style>
      .cls-1, .cls-2 {
        fill: #bcaf8f;
        stroke-width: 0px;
      }

      .cls-2 {
        opacity: 0;
      }
    </style>
  </defs>
  <rect class="cls-2" y="0" width="1300" height="333.66"/>
  <g>
    <g>
      <path class="cls-1" d="M154.74,204.73h18.76l-7.6-26.9-2.16-7.7c-6.76.02-11.63,6.49-9.77,12.99l1.23,4.31c3.62,11.76,1.28,14.79-.47,17.05v.25Z"/>
      <path class="cls-1" d="M202.17,170.13v.06c.44.56,1.28,2.33,1.28,6.21v5.64h.02v12.48c0,37.81-31.48,68.4-69.61,66.97-36.28-1.37-64.43-32.34-64.43-68.63v-52.03c0-36.86,29.1-67.99,65.95-68.56,37.08-.6,67.51,29.13,68.09,65.95.19,11.83-7.22,22.67-18.57,26.08-6.46,1.94-13.29,1.88-20.26,1.62-.57,0-1.18-.03-1.75-.03l-9.44-33.52c-2.89-10.56-6.17-21.75-4.39-24.01v-.25h-13.2l-1.56,5.34v.06l-31.8,70.85c-2.54,5.66-5.34,11.19-8.46,16.57-4.17,7.25-9.67,16.82-9.67,16.82h11.13c-.16-2.16.13-4.71.73-7.57,2-9.25,6.65-17.84,13.39-24.52,3.91-3.91,8.43-7.25,13.36-9.89,8.71-4.67,18.03-6.26,27.35-6.68l13.48-.03c2.19.1,4.42.16,6.68.16,4.71,0,9.48-.32,14.09-1.53,12.97-3.43,22.51-17.68,22.04-31.07-1.4-37.02-31.55-66.78-68.69-67.55-39.62-.83-71.68,32.25-71.68,71.87v51.84c0,38,29.51,70.44,67.48,71.87,39.94,1.49,72.92-30.56,72.92-70.15v-24.39h-4.47ZM121.48,172.98c-5.98,3.18-11.32,7.35-15.9,12.28l30.08-67,10.84,37.65.03-.03,2.86,10.05c-9.44.51-18.92,2.23-27.92,7.06Z"/>
    </g>
    <g>
      <g>
        <path class="cls-1" d="M255.49,213.32c3.87-1.24,7.32-4.01,11.61-14.51l27.22-67.43c.97-2.49.83-4.28-.28-6.5l-1.24-2.9,10.36-4.7,33.99,81.66c4.28,10.36,7.6,13.13,10.5,14.37v1.8h-21.42v-1.8c4.28-1.24,3.18-4.01-1.24-14.37l-8.43-20.31h-38.96l-8.15,20.17c-3.59,8.98-3.18,13.54,1.66,14.51v1.8h-15.61v-1.8ZM315.73,176.57l-18.93-45.46-18.38,45.46h37.3Z"/>
        <path class="cls-1" d="M357.18,179.47v-43.52c0-11.33-1.24-14.51-5.53-15.75v-1.79h22.38v1.79c-4.14,1.24-5.53,4.42-5.53,15.75v42.69c0,25.7,14.23,34.96,32.19,34.96,11.88,0,27.77-7.88,27.77-34.96v-37.17c0-15.75-3.31-19.62-9.39-21.28v-1.79h17.13v1.79c-4.14,1.24-5.53,4.42-5.53,15.75v42.28c0,27.77-15.2,38.27-34.4,38.27s-39.1-9.26-39.1-37.03Z"/>
        <path class="cls-1" d="M447.41,168.69c0-29.43,22.8-51.26,55.27-51.26,11.88,0,25.7,3.45,31.09,6.91l.55,16.44-1.38.28c-5.39-12.57-18.52-21-34.96-21-21.97,0-38.96,14.65-38.96,42.83-.14,25.98,15.61,50.85,44.35,50.85,14.92,0,26.53-7.88,31.92-22.8l1.52.14-2.21,17.96c-6.49,3.59-19.62,7.46-35.09,7.46-31.78,0-52.09-17.69-52.09-47.81Z"/>
        <path class="cls-1" d="M549.66,213.32c4.14-1.24,5.53-4.42,5.53-15.75v-61.62c0-11.33-1.38-14.51-5.53-15.75v-1.79h22.38v1.79c-4.28,1.24-5.53,4.42-5.53,15.75v61.62c0,11.33,1.24,14.51,5.53,15.75v1.8h-22.38v-1.8Z"/>
        <path class="cls-1" d="M586.14,215.12v-1.8c4.14-1.24,5.53-4.42,5.53-15.75v-61.62c0-11.33-1.38-14.51-5.53-15.75v-1.79h64.25l1.52,17.96-1.52.42c-4.84-12.16-12.99-16.3-27.08-16.3h-20.31v41.86h17.69c15.75,0,19.76-3.18,21.42-9.39h1.66v20.86h-1.66c-1.66-6.22-5.66-9.4-21.42-9.4h-17.69v42.42c0,4.01,2.21,6.22,6.22,6.22h17.96c13.26,0,21.69-3.73,26.67-16.58l1.52.28-1.1,18.38h-68.12Z"/>
        <path class="cls-1" d="M667.53,215.12v-1.8c4.14-1.24,5.53-4.42,5.53-15.75v-61.62c0-11.33-1.38-14.51-5.53-15.75v-1.79h22.38v1.79c-4.28,1.24-5.53,4.42-5.53,15.75v70.74c0,4,2.21,6.22,6.22,6.22h16.44c13.26,0,19.34-3.32,24.18-13.68l1.52.28-.97,15.61h-64.25Z"/>
        <path class="cls-1" d="M742.55,215.12v-1.8c4.14-1.24,5.53-4.42,5.53-15.75v-61.62c0-11.33-1.38-14.51-5.53-15.75v-1.79h64.25l1.52,17.96-1.52.42c-4.84-12.16-12.99-16.3-27.08-16.3h-20.31v41.86h17.69c15.75,0,19.76-3.18,21.41-9.39h1.66v20.86h-1.66c-1.66-6.22-5.66-9.4-21.41-9.4h-17.69v42.42c0,4.01,2.21,6.22,6.22,6.22h17.96c13.27,0,21.69-3.73,26.67-16.58l1.52.28-1.11,18.38h-68.12Z"/>
      </g>
      <g>
        <path class="cls-1" d="M843.56,213.32c3.87-1.24,7.32-4.01,11.61-14.51l27.22-67.43c.97-2.49.83-4.28-.28-6.5l-1.24-2.9,10.36-4.7,33.99,81.66c4.28,10.36,7.6,13.13,10.5,14.37v1.8h-21.41v-1.8c4.28-1.24,3.18-4.01-1.24-14.37l-8.43-20.31h-38.96l-8.15,20.17c-3.59,8.98-3.18,13.54,1.66,14.51v1.8h-15.61v-1.8ZM903.8,176.57l-18.93-45.46-18.38,45.46h37.31Z"/>
        <path class="cls-1" d="M941.52,215.12v-1.8c4.14-1.24,5.53-4.42,5.53-15.75v-61.62c0-11.33-1.38-14.51-5.53-15.75v-1.79h22.38v1.79c-4.28,1.24-5.53,4.42-5.53,15.75v70.74c0,4,2.21,6.22,6.22,6.22h16.44c13.27,0,19.35-3.32,24.18-13.68l1.52.28-.97,15.61h-64.25Z"/>
        <path class="cls-1" d="M992.38,120.19v-1.79h21.56v1.79c-4.14,1.24-3.18,4.01.97,14.51l26.67,68.39,26.25-68.25c3.45-9.12,2.9-13.68-1.8-14.65v-1.79h15.48v1.79c-3.73,1.24-7.18,4.01-11.19,14.51l-31.36,81.1h-3.87l-32.33-81.1c-4.14-10.5-7.46-13.27-10.36-14.51Z"/>
        <path class="cls-1" d="M1087.85,215.12v-1.8c4.14-1.24,5.53-4.42,5.53-15.75v-61.62c0-11.33-1.38-14.51-5.53-15.75v-1.79h64.25l1.52,17.96-1.52.42c-4.84-12.16-12.99-16.3-27.08-16.3h-20.31v41.86h17.69c15.75,0,19.76-3.18,21.42-9.39h1.66v20.86h-1.66c-1.66-6.22-5.67-9.4-21.42-9.4h-17.69v42.42c0,4.01,2.21,6.22,6.22,6.22h17.96c13.26,0,21.69-3.73,26.67-16.58l1.52.28-1.1,18.38h-68.12Z"/>
        <path class="cls-1" d="M1168.41,206.69l-.69-19.21,1.52-.28c5.39,14.51,15.89,26.8,35.1,26.8,11.05,0,20.59-7.18,20.59-18.38,0-13.82-16.99-20.17-28.6-24.87-16.3-6.5-26.67-12.3-26.67-26.94,0-16.17,13.4-26.39,33.71-26.39,12.57,0,21.55,3.45,26.94,6.36l.55,16.03-1.38.42c-5.11-12.02-14.78-20.59-30.54-20.59-11.19,0-20.72,6.49-20.72,18.24,0,12.99,14.23,18.24,25.98,23.07,15.34,6.08,29.7,12.16,29.7,27.77,0,17.27-16.03,27.77-32.33,27.77-14.51,0-26.67-5.11-33.16-9.81Z"/>
      </g>
    </g>
  </g>
</svg>