<?xml version="1.0" encoding="UTF-8"?>
<svg id="Camada_1" data-name="Camada 1" xmlns="http://www.w3.org/2000/svg" viewBox="0 0 1080 324.61">
  <defs>
    <style>
      .cls-1, .cls-2 {
        fill: #bcaf8f;
        stroke-width: 0px;
      }

      .cls-2 {
        opacity: 0;
      }
    </style>
  </defs>
  <g>
    <g>
      <path class="cls-1" d="M64.2,206.42c3.76-1.21,7.12-3.9,11.29-14.11l26.48-65.59c.94-2.42.81-4.17-.27-6.32l-1.21-2.82,10.08-4.57,33.06,79.44c4.17,10.08,7.39,12.77,10.22,13.98v1.75h-20.83v-1.75c4.17-1.21,3.09-3.9-1.21-13.98l-8.2-19.76h-37.9l-7.93,19.62c-3.49,8.74-3.09,13.17,1.61,14.11v1.75h-15.19v-1.75ZM122.81,170.67l-18.41-44.22-17.88,44.22h36.29Z"/>
      <path class="cls-1" d="M163.13,173.49v-42.34c0-11.02-1.21-14.11-5.38-15.32v-1.75h21.77v1.75c-4.03,1.21-5.38,4.3-5.38,15.32v41.53c0,25,13.84,34.01,31.32,34.01,11.56,0,27.02-7.66,27.02-34.01v-36.15c0-15.32-3.22-19.09-9.14-20.7v-1.75h16.67v1.75c-4.03,1.21-5.38,4.3-5.38,15.32v41.13c0,27.02-14.79,37.23-33.47,37.23s-38.04-9.01-38.04-36.02Z"/>
      <path class="cls-1" d="M250.9,163.01c0-28.63,22.18-49.87,53.76-49.87,11.56,0,25,3.36,30.24,6.72l.54,15.99-1.34.27c-5.24-12.23-18.01-20.43-34.01-20.43-21.37,0-37.9,14.25-37.9,41.67-.13,25.27,15.19,49.46,43.15,49.46,14.52,0,25.81-7.66,31.05-22.18l1.48.14-2.15,17.47c-6.32,3.49-19.08,7.26-34.14,7.26-30.91,0-50.67-17.2-50.67-46.5Z"/>
      <path class="cls-1" d="M350.37,206.42c4.03-1.21,5.38-4.3,5.38-15.32v-59.94c0-11.02-1.34-14.11-5.38-15.32v-1.75h21.77v1.75c-4.17,1.21-5.38,4.3-5.38,15.32v59.94c0,11.02,1.21,14.11,5.38,15.32v1.75h-21.77v-1.75Z"/>
      <path class="cls-1" d="M385.86,208.17v-1.75c4.03-1.21,5.38-4.3,5.38-15.32v-59.94c0-11.02-1.34-14.11-5.38-15.32v-1.75h62.5l1.48,17.47-1.48.4c-4.71-11.83-12.64-15.86-26.34-15.86h-19.76v40.72h17.2c15.32,0,19.22-3.09,20.83-9.14h1.61v20.29h-1.61c-1.61-6.05-5.51-9.14-20.83-9.14h-17.2v41.27c0,3.9,2.15,6.05,6.05,6.05h17.47c12.9,0,21.1-3.63,25.94-16.13l1.48.27-1.07,17.88h-66.26Z"/>
      <path class="cls-1" d="M465.03,208.17v-1.75c4.03-1.21,5.38-4.3,5.38-15.32v-59.94c0-11.02-1.34-14.11-5.38-15.32v-1.75h21.77v1.75c-4.17,1.21-5.38,4.3-5.38,15.32v68.82c0,3.9,2.15,6.05,6.05,6.05h15.99c12.9,0,18.82-3.23,23.52-13.31l1.48.27-.94,15.19h-62.5Z"/>
      <path class="cls-1" d="M538.01,208.17v-1.75c4.03-1.21,5.38-4.3,5.38-15.32v-59.94c0-11.02-1.34-14.11-5.38-15.32v-1.75h62.5l1.48,17.47-1.48.4c-4.7-11.83-12.63-15.86-26.34-15.86h-19.76v40.72h17.21c15.32,0,19.22-3.09,20.83-9.14h1.61v20.29h-1.61c-1.61-6.05-5.51-9.14-20.83-9.14h-17.21v41.27c0,3.9,2.15,6.05,6.05,6.05h17.47c12.9,0,21.1-3.63,25.94-16.13l1.48.27-1.08,17.88h-66.26Z"/>
    </g>
    <g>
      <path class="cls-1" d="M636.27,206.42c3.76-1.21,7.12-3.9,11.29-14.11l26.48-65.59c.94-2.42.81-4.17-.27-6.32l-1.21-2.82,10.08-4.57,33.06,79.44c4.17,10.08,7.39,12.77,10.21,13.98v1.75h-20.83v-1.75c4.17-1.21,3.09-3.9-1.21-13.98l-8.2-19.76h-37.9l-7.93,19.62c-3.49,8.74-3.09,13.17,1.61,14.11v1.75h-15.19v-1.75ZM694.87,170.67l-18.41-44.22-17.88,44.22h36.29Z"/>
      <path class="cls-1" d="M731.56,208.17v-1.75c4.03-1.21,5.38-4.3,5.38-15.32v-59.94c0-11.02-1.34-14.11-5.38-15.32v-1.75h21.77v1.75c-4.17,1.21-5.38,4.3-5.38,15.32v68.82c0,3.9,2.15,6.05,6.05,6.05h15.99c12.9,0,18.82-3.23,23.52-13.31l1.48.27-.94,15.19h-62.5Z"/>
      <path class="cls-1" d="M781.03,115.83v-1.75h20.97v1.75c-4.03,1.21-3.09,3.9.94,14.11l25.94,66.53,25.54-66.4c3.36-8.87,2.82-13.31-1.75-14.25v-1.75h15.05v1.75c-3.63,1.21-6.99,3.9-10.89,14.11l-30.51,78.9h-3.76l-31.45-78.9c-4.03-10.22-7.26-12.9-10.08-14.11Z"/>
      <path class="cls-1" d="M873.91,208.17v-1.75c4.03-1.21,5.38-4.3,5.38-15.32v-59.94c0-11.02-1.34-14.11-5.38-15.32v-1.75h62.5l1.48,17.47-1.48.4c-4.7-11.83-12.63-15.86-26.34-15.86h-19.76v40.72h17.2c15.32,0,19.22-3.09,20.83-9.14h1.61v20.29h-1.61c-1.61-6.05-5.51-9.14-20.83-9.14h-17.2v41.27c0,3.9,2.15,6.05,6.05,6.05h17.47c12.9,0,21.1-3.63,25.94-16.13l1.48.27-1.07,17.88h-66.27Z"/>
      <path class="cls-1" d="M952.27,199.97l-.67-18.68,1.48-.27c5.24,14.11,15.46,26.07,34.14,26.07,10.75,0,20.03-6.99,20.03-17.88,0-13.44-16.53-19.62-27.82-24.19-15.86-6.32-25.94-11.96-25.94-26.21,0-15.73,13.04-25.67,32.8-25.67,12.23,0,20.97,3.36,26.21,6.18l.54,15.59-1.34.4c-4.97-11.69-14.38-20.03-29.7-20.03-10.89,0-20.16,6.32-20.16,17.74,0,12.64,13.84,17.74,25.27,22.45,14.92,5.91,28.9,11.83,28.9,27.02,0,16.8-15.59,27.02-31.45,27.02-14.11,0-25.94-4.97-32.26-9.54Z"/>
    </g>
  </g>
  <rect class="cls-2" x="0" y="0" width="1080" height="324.61"/>
</svg>